<svg width="195" height="246" viewBox="0 0 195 246" fill="none" xmlns="http://www.w3.org/2000/svg">
<path d="M149.5 155C174.629 155 195 175.371 195 200.5C195 225.629 174.629 246 149.5 246C127.191 246 108.633 229.944 104.749 208.757C102.646 208.304 100.657 208.022 98.9414 208.001H98.5723C96.1829 208.026 93.1995 208.606 90.1143 209.463C85.9514 230.299 67.5607 246 45.5 246C20.371 246 0 225.629 0 200.5C0 175.371 20.371 155 45.5 155C68.7431 155 87.9134 172.428 90.6602 194.93C93.2595 194.392 95.9125 194.028 98.4277 194.002H99.0342C100.784 194.02 102.592 194.19 104.398 194.464C107.351 172.188 126.418 155 149.5 155Z" fill="#810B0D"/>
<path d="M98 0C112.912 0 125 12.0883 125 27C125 33.605 122.627 39.6547 118.688 44.3467C159.536 53.7795 190 90.542 190 134.454C190 185.514 148.81 125.322 98 125.322C47.1899 125.322 6.00022 185.514 6 134.454C6 90.5423 36.4632 53.7798 77.3105 44.3467C73.3726 39.6548 71 33.6048 71 27C71 12.0883 83.0883 0 98 0Z" fill="#810B0D"/>
<path d="M171 124.636C171 165.304 138.317 124.636 98 124.636C57.6832 124.636 25 165.304 25 124.636C25 83.9678 57.6832 51 98 51C138.317 51 171 83.9678 171 124.636Z" fill="#E54544"/>
<path d="M90.843 8.53131C94.3751 4.0047 101.078 3.60546 105.123 7.6808L113.524 16.1463C120.892 23.571 111.638 35.4183 102.65 30.0667L101.991 29.6743C99.2762 28.0576 95.852 28.248 93.3328 30.1558V30.1558C86.0895 35.641 76.9359 26.354 82.5254 19.1908L90.843 8.53131Z" fill="#E54544"/>
</svg>
